<?xml version="1.0" encoding="iso-8859-1"?>
<!-- Uploaded to: SVG Repo, www.svgrepo.com, Generator: SVG Repo Mixer Tools -->
<!DOCTYPE svg PUBLIC "-//W3C//DTD SVG 1.1//EN" "http://www.w3.org/Graphics/SVG/1.1/DTD/svg11.dtd">
<svg fill="#000000" version="1.1" id="Capa_1" xmlns="http://www.w3.org/2000/svg" xmlns:xlink="http://www.w3.org/1999/xlink" 
	 width="800px" height="800px" viewBox="0 0 196.095 196.095"
	 xml:space="preserve">
<g>
	<path d="M155.158,78.066l-24.134-48.271c2.441-2.633,3.966-6.127,3.966-9.986c0-8.124-6.572-14.697-14.682-14.697
		c-8.122,0-14.694,6.573-14.694,14.697c0,7.938,6.312,14.369,14.186,14.635l21.822,43.622H54.488l21.814-43.622
		c7.873-0.266,14.191-6.696,14.191-14.635c0-8.124-6.579-14.697-14.694-14.697c-8.112,0-14.697,6.573-14.697,14.697
		c0,3.872,1.537,7.365,3.984,9.986l-24.14,48.271H0l42.489,112.916h111.108l42.498-112.916H155.158z M78.087,147.408v-25.771h39.939
		v25.771H78.087z M118.026,159.514v19.363H78.087v-19.363H118.026z M39.064,147.491l-9.72-25.849h36.644v25.777H39.076
		L39.064,147.491L39.064,147.491z M78.087,109.532V90.171h39.939v19.361H78.087z M130.131,121.637h36.635l-9.711,25.843v-0.071
		h-26.9v-25.771H130.131z M130.131,109.532V90.171h48.479l-7.281,19.361H130.131z M65.982,90.171v19.361H24.781l-7.282-19.361
		H65.982z M43.586,159.514h22.39v19.363H50.874L43.586,159.514z M130.131,178.877v-19.363h22.39l-7.294,19.363H130.131z"/>
</g>
</svg>